<svg xmlns="http://www.w3.org/2000/svg" xmlns:xlink="http://www.w3.org/1999/xlink" id="Layer_1" x="0" y="0" version="1.1" viewBox="0 0 19 19" xml:space="preserve" style="enable-background:new 0 0 19 19"><style type="text/css">.icon_x002D_asx_x002D_blue{fill:#0081e4}.icon_x002D_canvas_x002D_transparent{opacity:0;fill:#f6f6f6;fill-opacity:0}</style><path id="canvas" d="M19,0v19H0V0H19z" class="icon_x002D_canvas_x002D_transparent"/><path d="M6.538,9.666c0,0.701-0.568,1.269-1.269,1.269S4,10.367,4,9.666	c0-0.701,0.568-1.269,1.269-1.269S6.538,8.965,6.538,9.666z M9.5,8.397C8.799,8.379,8.216,8.932,8.198,9.633	s0.535,1.284,1.236,1.302c0.022,0.001,0.044,0.001,0.066,0c0.701-0.018,1.254-0.6,1.236-1.301C10.718,8.958,10.175,8.415,9.5,8.397z M13.731,8.397c-0.701,0-1.269,0.568-1.269,1.269c0,0.701,0.568,1.269,1.269,1.269S15,10.367,15,9.666	C15,8.965,14.432,8.397,13.731,8.397z" class="icon_x002D_asx_x002D_blue"/></svg>